# xmcd
#
# Track frame offsets:
#	150
#	13891
#	27883
#	42667
#	56871
#	74984
#	86254
#	104219
#	115350
#	134016
#	147177
#	166273
#
# Disc length: 2448 seconds
#
# Revision: 2
# Processed by: cddbd v1.5.1PL2 Copyright (c) Steve Scherf et al.
# Submitted via: audiograbber 1.83.01
#
DISCID=bd098e0c
DTITLE=THE BILL SVESI TEAM - Bamboo Island 
DYEAR=2003
DGENRE=NZ Polynesian
TTITLE0=Bamboo Island
TTITLE1=Chulu Chululu
TTITLE2=Bamboo Lagoon
TTITLE3=Bamboo Panda
TTITLE4=Isa Lei
TTITLE5=Malinoa Moon
TTITLE6=Puleono
TTITLE7=Malinoa Chimes
TTITLE8=Was It The Moonlight
TTITLE9=Meama Island
TTITLE10=Mataina Oe
TTITLE11=Bolero Bamboos
EXTD=www.billsevesi.com
EXTT0=
EXTT1=
EXTT2=
EXTT3=
EXTT4=
EXTT5=
EXTT6=
EXTT7=
EXTT8=
EXTT9=
EXTT10=
EXTT11=
PLAYORDER=
